HIERARCHY
ROOT Hips
{
    OFFSET 0.000000 0.000000 0.000000
    CHANNELS 6 Xposition Yposition Zposition Zrotation Xrotation Yrotation
    JOINT Spine
    {
        OFFSET -0.000000 14.517291 0.000000
        CHANNELS 3 Zrotation Xrotation Yrotation
        JOINT Spine1
        {
            OFFSET -0.000000 37.558300 0.000000
            CHANNELS 3 Zrotation Xrotation Yrotation
            JOINT Neck
            {
                OFFSET -0.000000 37.404057 3.400369
                CHANNELS 3 Zrotation Xrotation Yrotation
                JOINT Head
                {
                    OFFSET -0.000000 24.785618 -3.540803
                    CHANNELS 3 Zrotation Xrotation Yrotation
                    End Site
                    {
                        OFFSET -0.000000 35.408028 0.000000
                    }
                }
            }
            JOINT LeftShoulder
            {
                OFFSET 6.992933 33.973492 -0.192664
                CHANNELS 3 Zrotation Xrotation Yrotation
                JOINT LeftArm
                {
                    OFFSET 21.527611 0.000000 0.000000
                    CHANNELS 3 Zrotation Xrotation Yrotation
                    JOINT LeftForeArm
                    {
                        OFFSET 56.353916 0.000000 0.000000
                        CHANNELS 3 Zrotation Xrotation Yrotation
                        JOINT LeftHand
                        {
                            OFFSET 47.774071 0.000000 0.000000
                            CHANNELS 3 Zrotation Xrotation Yrotation
                            End Site
                            {
                                OFFSET 26.556021 0.000000 0.000000
                            }
                        }
                    }
                }
            }
            JOINT RightShoulder
            {
                OFFSET -7.065357 33.973492 -0.192664
                CHANNELS 3 Zrotation Xrotation Yrotation
                JOINT RightArm
                {
                    OFFSET -21.527611 0.000000 0.000000
                    CHANNELS 3 Zrotation Xrotation Yrotation
                    JOINT RightForeArm
                    {
                        OFFSET -56.353916 0.000000 0.000000
                        CHANNELS 3 Zrotation Xrotation Yrotation
                        JOINT RightHand
                        {
                            OFFSET -47.774071 0.000000 0.000000
                            CHANNELS 3 Zrotation Xrotation Yrotation
                            End Site
                            {
                                OFFSET -26.556021 0.000000 0.000000
                            }
                        }
                    }
                }
            }
        }
    }
    JOINT LeftUpLeg
    {
        OFFSET 17.704014 0.000000 0.000000
        CHANNELS 3 Zrotation Xrotation Yrotation
        JOINT LeftLeg
        {
            OFFSET -0.000000 -81.181816 0.000000
            CHANNELS 3 Zrotation Xrotation Yrotation
            JOINT LeftFoot
            {
                OFFSET -0.000000 -62.821102 0.000000
                CHANNELS 3 Zrotation Xrotation Yrotation
                JOINT LeftToeBase
                {
                    OFFSET -0.000000 -11.507608 26.556021
                    CHANNELS 3 Zrotation Xrotation Yrotation
                    End Site
                    {
                        OFFSET -0.000000 0.000000 7.081605
                    }
                }
            }
        }
    }
    JOINT RightUpLeg
    {
        OFFSET -17.704014 0.000000 0.000000
        CHANNELS 3 Zrotation Xrotation Yrotation
        JOINT RightLeg
        {
            OFFSET -0.000000 -81.181816 0.000000
            CHANNELS 3 Zrotation Xrotation Yrotation
            JOINT RightFoot
            {
                OFFSET -0.000000 -62.821102 0.000000
                CHANNELS 3 Zrotation Xrotation Yrotation
                JOINT RightToeBase
                {
                    OFFSET -0.000000 -11.507608 26.556021
                    CHANNELS 3 Zrotation Xrotation Yrotation
                    End Site
                    {
                        OFFSET -0.000000 0.000000 7.081605
                    }
                }
            }
        }
    }
}
MOTION
Frames:    13
Frame Time:    0.008333
-12.554918    152.229248    -96.874580    2.626215    -5.271866    46.198254    -4.384258    0.872403    -5.787342    0.346822    4.731892    -1.954028    -3.290017    -1.245486    -16.010595    15.375022    3.602576    -14.486638    9.913457    2.206704    -23.654484    -24.251890    2.598787    -83.645767    31.786591    -57.811481    -68.529961    -20.659836    -39.115421    -32.727055    1.653621    11.626967    -4.184911    31.685595    18.196325    46.866787    -12.200206    1.132996    36.985508    -27.808088    -2.667687    31.073996    17.771490    -1.752137    -4.549554    -18.425491    39.680244    -20.346233    6.704314    -30.873951    50.083214    0.000000    0.000000    0.000000    -25.270138    -16.264078    -25.636997    11.100114    32.314373    -19.377216    7.577145    6.195030    -7.399868    0.000000    0.000000    0.000000    
-12.543300    152.225082    -96.878159    2.620671    -5.251740    46.184521    -4.349152    0.845085    -5.719721    0.333562    4.741814    -1.930538    -3.327715    -1.212404    -16.036413    15.394212    3.567426    -14.501842    9.822261    2.384133    -23.463345    -24.347765    3.206360    -83.325081    30.702332    -57.532154    -69.988663    -20.317545    -39.033676    -32.213661    1.636462    11.631559    -4.186139    31.702787    18.259478    46.868340    -12.253139    1.102735    36.962929    -27.753458    -2.656441    31.036211    17.756489    -1.765033    -4.542629    -18.430170    39.688133    -20.346321    6.705926    -30.886591    50.082520    0.000000    0.000000    0.000000    -25.281139    -16.278965    -25.643967    11.099414    32.305229    -19.359795    7.563714    6.173176    -7.411092    0.000000    0.000000    0.000000    
-12.532717    152.222443    -96.881088    2.614172    -5.230809    46.167797    -4.318540    0.814512    -5.642290    0.328393    4.762537    -1.904116    -3.376327    -1.173196    -16.071115    15.439825    3.518671    -14.520101    9.728894    2.558389    -23.277460    -24.458874    3.682017    -83.052895    29.573378    -57.186146    -71.394478    -20.005138    -38.918385    -31.695604    1.608956    11.629942    -4.201811    31.722969    18.335192    46.874729    -12.317014    1.063235    36.929859    -27.723755    -2.671811    31.044874    17.740826    -1.779444    -4.519166    -18.426481    39.697403    -20.340494    6.695338    -30.885771    50.075211    0.000000    0.000000    0.000000    -25.291744    -16.293097    -25.639032    11.106065    32.290977    -19.369471    7.562202    6.156511    -7.395527    0.000000    0.000000    0.000000    
-12.519857    152.221466    -96.889076    2.605030    -5.213006    46.154678    -4.274164    0.788162    -5.561392    0.313625    4.767937    -1.876095    -3.434406    -1.131125    -16.104698    15.493251    3.488794    -14.537470    9.613628    2.711314    -23.119968    -24.525553    4.227129    -82.725525    28.423691    -56.908787    -72.840302    -19.749516    -38.912560    -31.194016    1.588933    11.632125    -4.219469    31.748051    18.389042    46.873550    -12.326182    1.044261    36.901489    -27.696775    -2.676933    31.021872    17.727671    -1.794571    -4.519682    -18.444118    39.695492    -20.304707    6.703297    -30.879143    50.078247    0.000000    0.000000    0.000000    -25.298670    -16.308479    -25.647440    11.093290    32.278904    -19.364805    7.559513    6.157053    -7.376694    0.000000    0.000000    0.000000    
-12.508337    152.220673    -96.899406    2.588081    -5.189325    46.139961    -4.224582    0.747760    -5.474229    0.291248    4.778710    -1.845523    -3.494488    -1.060649    -16.148924    15.565845    3.426693    -14.560107    9.499370    2.832206    -22.979723    -24.706900    4.713741    -82.370911    27.269207    -56.498325    -74.250519    -19.679010    -38.706848    -30.769444    1.564546    11.649396    -4.245541    31.771532    18.451639    46.891209    -12.338171    0.982273    36.895607    -27.660769    -2.684340    30.869606    17.713089    -1.823950    -4.504198    -18.440781    39.712887    -20.319935    6.718699    -30.876923    50.099758    0.000000    0.000000    0.000000    -25.310085    -16.334641    -25.646671    11.107589    32.265129    -19.379360    7.541104    6.162848    -7.369761    0.000000    0.000000    0.000000    
-12.495873    152.221329    -96.904961    2.573514    -5.177020    46.125187    -4.168682    0.723272    -5.384099    0.271543    4.773725    -1.814227    -3.543526    -0.990251    -16.192293    15.612269    3.371120    -14.587383    9.377384    2.929659    -22.859949    -24.915434    5.230116    -81.958862    25.626251    -56.077385    -76.154526    -19.090368    -38.849522    -30.046221    1.545016    11.681646    -4.255836    31.826626    18.454203    46.881039    -12.343843    1.014001    36.862514    -27.667192    -2.645443    30.827696    17.711409    -1.840920    -4.501530    -18.454834    39.719257    -20.305456    6.699691    -30.892262    50.104786    0.000000    0.000000    0.000000    -25.309832    -16.353733    -25.663334    11.090823    32.259415    -19.371145    7.541236    6.178961    -7.350463    0.000000    0.000000    0.000000    
-12.486221    152.220184    -96.911659    2.557972    -5.164799    46.112804    -4.112381    0.702332    -5.294085    0.249720    4.759517    -1.782897    -3.602079    -0.914085    -16.233082    15.682122    3.326711    -14.609591    9.261928    2.991636    -22.756504    -25.119915    5.750655    -81.501678    24.459694    -55.639603    -77.583374    -18.942686    -38.706833    -29.557978    1.514907    11.713885    -4.257846    31.913456    18.426352    46.858635    -12.294852    1.068202    36.831833    -27.693972    -2.625768    30.851702    17.711384    -1.859467    -4.505624    -18.474138    39.725288    -20.304182    6.719565    -30.885700    50.132462    0.000000    0.000000    0.000000    -25.311905    -16.367462    -25.672718    11.093841    32.247906    -19.354494    7.538759    6.172828    -7.355484    0.000000    0.000000    0.000000    
-12.470744    152.219528    -96.912407    2.552366    -5.162790    46.104389    -4.052112    0.682065    -5.205180    0.208823    4.757180    -1.751214    -3.642435    -0.834973    -16.273279    15.749090    3.291249    -14.635720    9.181304    3.085047    -22.642563    -25.217319    6.377501    -81.122597    23.762165    -55.379612    -78.609474    -18.893866    -38.589523    -29.219183    1.501120    11.767445    -4.276369    31.993549    18.364929    46.868587    -12.199330    1.118732    36.795963    -27.741627    -2.622912    30.841078    17.715307    -1.859205    -4.512383    -18.495495    39.729855    -20.309599    6.735160    -30.892193    50.158028    0.000000    0.000000    0.000000    -25.313780    -16.365849    -25.682568    11.099689    32.240322    -19.334751    7.526841    6.168868    -7.373612    0.000000    0.000000    0.000000    
-12.455606    152.219391    -96.916115    2.547731    -5.157483    46.100414    -3.997726    0.669898    -5.122546    0.181623    4.737588    -1.722218    -3.673853    -0.756225    -16.308924    15.780312    3.262399    -14.663352    9.087353    3.197195    -22.490873    -25.428780    6.934507    -80.644936    22.630013    -54.902119    -80.040161    -18.539976    -38.466663    -28.724455    1.481706    11.818686    -4.290194    32.037819    18.361128    46.881096    -12.127750    1.064366    36.782330    -27.687752    -2.634171    30.642096    17.712772    -1.858541    -4.518749    -18.515593    39.718254    -20.275412    6.735651    -30.891100    50.145786    0.000000    0.000000    0.000000    -25.315664    -16.365395    -25.694822    11.092049    32.227516    -19.329813    7.531121    6.178805    -7.370659    0.000000    0.000000    0.000000    
-12.439922    152.219742    -96.912697    2.544216    -5.153910    46.093742    -3.943370    0.647319    -5.037776    0.139668    4.735618    -1.691877    -3.660358    -0.705902    -16.333572    15.757009    3.254805    -14.694586    9.008274    3.315352    -22.345764    -25.619610    7.415246    -80.150253    21.685795    -54.397469    -81.256897    -18.408350    -38.201050    -28.349468    1.478289    11.847649    -4.299523    32.084000    18.367500    46.879654    -12.106190    1.118649    36.730957    -27.734310    -2.592911    30.589993    17.713036    -1.853940    -4.506263    -18.518873    39.714344    -20.256420    6.729966    -30.890900    50.127075    0.000000    0.000000    0.000000    -25.316196    -16.362419    -25.700434    11.094196    32.217258    -19.331129    7.513847    6.169115    -7.361387    0.000000    0.000000    0.000000    
-12.426710    152.222961    -96.905968    2.548190    -5.155135    46.095318    -3.901467    0.626644    -4.956787    0.111517    4.741024    -1.663402    -3.673072    -0.642616    -16.351458    15.771333    3.237454    -14.709472    8.917315    3.424684    -22.215466    -25.824785    7.876766    -79.571945    20.309702    -53.918049    -82.835793    -18.166965    -38.261543    -27.824381    1.473310    11.855569    -4.303340    32.094635    18.435101    46.873283    -12.133373    1.118697    36.646893    -27.720152    -2.573265    30.529030    17.716440    -1.839140    -4.506836    -18.532108    39.698734    -20.255806    6.729153    -30.892399    50.130394    0.000000    0.000000    0.000000    -25.315126    -16.347464    -25.704247    11.088660    32.205700    -19.345888    7.534211    6.169141    -7.348746    0.000000    0.000000    0.000000    
-12.415639    152.226791    -96.903053    2.545070    -5.149858    46.103081    -3.857226    0.601635    -4.878567    0.083734    4.743517    -1.635834    -3.682790    -0.569891    -16.376587    15.784208    3.195748    -14.729582    8.828286    3.565625    -22.058739    -25.794329    8.437236    -79.183662    20.140444    -53.558270    -83.288094    -17.871443    -37.878349    -27.612846    1.472092    11.877320    -4.337974    32.106880    18.475311    46.905312    -12.128727    1.158974    36.545315    -27.720980    -2.537636    30.494587    17.716419    -1.842878    -4.486486    -18.521065    39.701973    -20.258436    6.721129    -30.881989    50.096588    0.000000    0.000000    0.000000    -25.316317    -16.339354    -25.723036    11.081319    32.192928    -19.319414    7.528635    6.160011    -7.369789    0.000000    0.000000    0.000000    
-12.404971    152.230560    -96.894867    2.540221    -5.144708    46.117912    -3.822651    0.570625    -4.813900    0.068031    4.746720    -1.613208    -3.716501    -0.494510    -16.394602    15.822429    3.158999    -14.736426    8.743361    3.704298    -21.886656    -25.899105    8.880307    -78.605690    19.177437    -52.999752    -84.443779    -17.488298    -37.699795    -27.188938    1.478519    11.912151    -4.364658    32.096149    18.510630    46.955406    -12.102715    1.191485    36.425106    -27.771402    -2.534168    30.462786    17.716742    -1.850644    -4.485562    -18.515667    39.702480    -20.280968    6.729489    -30.875898    50.112099    0.000000    0.000000    0.000000    -25.316523    -16.328762    -25.758984    11.059333    32.190151    -19.305676    7.524927    6.153714    -7.338608    0.000000    0.000000    0.000000    
